<svg
  xmlns="http://www.w3.org/2000/svg"
  viewBox="0 0 128 128"
  fill="none"
>
  <rect width="128" height="128" rx="28" fill="white" />
  <rect
    x="18"
    y="30"
    width="92"
    height="68"
    rx="14"
    fill="#ffffff"
    stroke="#312e81"
    stroke-width="6"
  />
  <path
    d="M22 42 57 68a11 11 0 0 0 14 0l35-26"
    stroke="#312e81"
    stroke-width="6"
    stroke-linecap="round"
    stroke-linejoin="round"
  />
  <path
    d="M22 94 49 67"
    stroke="#312e81"
    stroke-width="6"
    stroke-linecap="round"
  />
  <path
    d="M106 94 79 67"
    stroke="#312e81"
    stroke-width="6"
    stroke-linecap="round"
  />
  <g transform="translate(72 14) rotate(-8)">
    <path
      d="M6 14c3.5-6.8 9.7-10.8 15.5-10.8 5 0 8.5 2.7 10.6 7 2.5-4.3 6-7 11-7 5.8 0 11.7 4 15 10.8-5.3-2-9.5-2.8-14.3-2.8-4.8 0-8.3 1-12.2 3.7-3.7-2.7-7.2-3.7-12-3.7S11.1 12 6 14Z"
      fill="#ec4899"
    />
    <path
      d="M8 27c5.1 2 8.5 2.7 12.9 2.7 4.6 0 8.1-1 11.7-3.6 4 2.6 7.5 3.6 12.2 3.6 4.5 0 8-.7 13.2-2.7-3.7 6.9-9.8 10.8-15.7 10.8-4.8 0-8.5-2.1-10.9-6.2-2.4 4.1-6.3 6.2-11 6.2C17.7 37.8 11.8 33.9 8 27Z"
      fill="#f472b6"
    />
    <path
      d="M12.5 18.6c2.7-.8 4.9-1.1 7.4-1.1 4.1 0 6.8.9 10.6 3.4 3.8-2.5 6.6-3.4 10.7-3.4 2.6 0 4.8.3 7.6 1.1"
      stroke="#9d174d"
      stroke-width="3"
      stroke-linecap="round"
      stroke-linejoin="round"
    />
  </g>
</svg>
